<svg xmlns="http://www.w3.org/2000/svg" width="7.734" height="12.27" viewBox="0 0 7.734 12.27"><defs><style>.a{fill:#fff;}</style></defs><g transform="translate(7.734 12.27) rotate(180)"><path class="a" d="M82.514,5.426,87.648.3a.989.989,0,0,1,1.418,0l.6.591a.964.964,0,0,1,.291.709,1.008,1.008,0,0,1-.291.717l-3.827,3.82,3.828,3.828a.965.965,0,0,1,.291.709,1.008,1.008,0,0,1-.291.717l-.6.591a1.008,1.008,0,0,1-1.418,0L82.514,6.852a1.008,1.008,0,0,1-.292-.717A.965.965,0,0,1,82.514,5.426Z" transform="translate(-82.222 0)"/></g></svg>