<svg xmlns="http://www.w3.org/2000/svg" width="18.816" height="17.589" viewBox="0 0 18.816 17.589"><defs><style>.a{fill:#fff;}</style></defs><g transform="translate(0 0)"><path class="a" d="M17.58,28.456l1.227-7.363a.614.614,0,0,0-.605-.714H4.365l-.176-2.007A1.832,1.832,0,0,0,2.356,16.7H.614a.614.614,0,1,0,0,1.227H2.356a.61.61,0,0,1,.611.556L3.991,30.158a1.832,1.832,0,0,0,1.833,1.674H6.65a1.841,1.841,0,1,0,3.47,0h2.665a1.841,1.841,0,1,0,3.47,0h.719a.614.614,0,1,0,0-1.227H5.825a.61.61,0,0,1-.611-.556l-.095-1.08H16.975A.614.614,0,0,0,17.58,28.456Zm-3.059,3.376a.614.614,0,1,1-.614.614A.614.614,0,0,1,14.521,31.832Zm-6.136,0a.614.614,0,1,1-.614.614A.614.614,0,0,1,8.385,31.832Zm5.522-10.226h3.571l-.409,2.454H13.907ZM7.772,27.742H5.011L4.8,25.288H7.772Zm0-3.681H4.688l-.215-2.454h3.3Zm4.908,3.681H9V25.288H12.68Zm0-3.681H9V21.606H12.68Zm3.775,3.681H13.907V25.288h2.957Z" transform="translate(0 -16.698)"/></g></svg>