<svg xmlns="http://www.w3.org/2000/svg" width="34.666" height="35" viewBox="0 0 34.666 35"><defs><style>.a{fill:#578fe1;}</style></defs><g transform="translate(-4 -4)"><path class="a" d="M15.879,51.1h9.168V48H4v3.1H9.454a3.707,3.707,0,0,1,6.426,0Z" transform="translate(0 -16.762)"/><path class="a" d="M6,55v.619a.619.619,0,0,0,.619.619H9.77A3.467,3.467,0,0,1,9.77,55Z" transform="translate(-0.762 -19.429)"/><ellipse class="a" cx="2" cy="2.5" rx="2" ry="2.5" transform="translate(10.666 34)"/><path class="a" d="M15.476,8.952h2.476V6.476a2.476,2.476,0,1,0-2.476,2.476Z" transform="translate(-3.429)"/><ellipse class="a" cx="2" cy="2.5" rx="2" ry="2.5" transform="translate(30.666 34)"/><path class="a" d="M23.91,55a3.467,3.467,0,0,1,0,1.238H36.4A3.467,3.467,0,0,1,36.4,55Z" transform="translate(-7.585 -19.429)"/><path class="a" d="M49.4,46.143h2.978V43.667a3.1,3.1,0,0,0-3.1-3.1H43.1a1.863,1.863,0,0,1-1.857-1.857V35H40V46.143h2.978a3.707,3.707,0,0,1,6.426,0Zm-5.07-3.714H43.1a.619.619,0,0,1,0-1.238h1.238a.619.619,0,0,1,0,1.238Z" transform="translate(-13.715 -11.81)"/><path class="a" d="M27,14h8.047v4.952H27Z" transform="translate(-8.762 -3.81)"/><path class="a" d="M48.618,39.333,47.51,36.839A3.1,3.1,0,0,0,44.681,35H44v3.714a.619.619,0,0,0,.619.619Z" transform="translate(-15.239 -11.81)"/><path class="a" d="M57.823,56.238a.619.619,0,0,0,.619-.619V55H55.91a3.467,3.467,0,0,1,0,1.238Z" transform="translate(-19.776 -19.429)"/><path class="a" d="M6,24h6.809V37.619H6Z" transform="translate(-0.762 -7.619)"/><path class="a" d="M27,24h6.809V37.619H27Z" transform="translate(-8.762 -7.619)"/><path class="a" d="M23,8.952h2.476A2.476,2.476,0,1,0,23,6.476Z" transform="translate(-7.238)"/><path class="a" d="M4,14h8.047v4.952H4Z" transform="translate(0 -3.81)"/><path class="a" d="M19,14h3.714V33.809H19Z" transform="translate(-5.714 -3.81)"/></g></svg>