<svg xmlns="http://www.w3.org/2000/svg" width="29.47" height="27.548" viewBox="0 0 29.47 27.548"><defs><style>.a{fill:#578fe1;}</style></defs><g transform="translate(0 -16.698)"><g transform="translate(0 16.698)"><path class="a" d="M27.535,35.115l1.922-11.532a.961.961,0,0,0-.948-1.119H6.837L6.562,19.32A2.869,2.869,0,0,0,3.69,16.7H.961a.961.961,0,1,0,0,1.922H3.69a.956.956,0,0,1,.957.871l1.6,18.29A2.869,2.869,0,0,0,9.123,40.4h1.293a2.883,2.883,0,1,0,5.435,0h4.175a2.883,2.883,0,1,0,5.435,0h1.126a.961.961,0,1,0,0-1.922H9.123a.956.956,0,0,1-.957-.871l-.148-1.692h18.57A.961.961,0,0,0,27.535,35.115ZM22.743,40.4a.961.961,0,1,1-.961.961A.962.962,0,0,1,22.743,40.4Zm-9.61,0a.961.961,0,1,1-.961.961A.962.962,0,0,1,13.133,40.4Zm8.649-16.016h5.592l-.641,3.844H21.782ZM12.173,34H7.849l-.337-3.844h4.661Zm0-5.766H7.343l-.337-3.844h5.167ZM19.86,34H14.094V30.152H19.86Zm0-5.766H14.094V24.386H19.86ZM25.773,34H21.782V30.152h4.632Z" transform="translate(0 -16.698)"/></g></g></svg>