<svg xmlns="http://www.w3.org/2000/svg" width="41.574" height="41.67" viewBox="0 0 41.574 41.67"><defs><style>.a{fill:#d3a06c;}.b{fill:#b27946;}.c{fill:#92e0c0;}.d{fill:#f9e0a6;}.e{fill:#eabd8c;}.f{fill:#ececec;}.g{fill:#48c397;}.h{fill:#fb5968;}</style></defs><g transform="translate(-0.572)"><path class="a" d="M151.428,100.77v-4.7A8.066,8.066,0,0,1,159.493,88h0a8.066,8.066,0,0,1,8.065,8.065v4.7Z" transform="translate(-138.182 -80.607)"/><path class="b" d="M240.1,88c-.227,0-.45.015-.672.034a8.062,8.062,0,0,1,7.393,8.032v4.7h1.344v-4.7A8.066,8.066,0,0,0,240.1,88Z" transform="translate(-218.789 -80.607)"/><path class="c" d="M120.165,343.393h14.786l-1.262-3.784a4.033,4.033,0,0,0-3.1-2.692L125.542,336h-5.377l-5.044.917a4.033,4.033,0,0,0-3.1,2.692l-.589,2.676v1.108Z" transform="translate(-101.543 -307.772)"/><g transform="translate(13.246 14.786)"><path class="d" d="M215.428,312v2.016l2.688,2.688,2.688-2.688V312Z" transform="translate(-210.051 -300.574)"/><path class="d" d="M311.428,216h.672a2.016,2.016,0,0,1,2.016,2.016h0a2.016,2.016,0,0,1-2.016,2.016h-.672Z" transform="translate(-297.986 -212.639)"/><path class="d" d="M154.116,216h-.672a2.016,2.016,0,0,0-2.016,2.016h0a2.016,2.016,0,0,0,2.016,2.016h.672Z" transform="translate(-151.428 -212.639)"/><path class="d" d="M175.428,178.688v4.033a6.049,6.049,0,0,0,6.049,6.049h0a6.049,6.049,0,0,0,6.049-6.049v-4.033h0a8.114,8.114,0,0,1-5.737-2.377l-.312-.312-.312.312a8.114,8.114,0,0,1-5.737,2.377Z" transform="translate(-173.412 -176)"/></g><path class="e" d="M244.8,210.721a6.048,6.048,0,0,1-5.377,6.009,6.031,6.031,0,0,0,6.721-6.009v-4.033a8.142,8.142,0,0,1-1.344-.12Z" transform="translate(-218.789 -189.214)"/><path class="f" d="M344.772,8h9.409a1.344,1.344,0,0,1,1.344,1.344v5.377a1.344,1.344,0,0,1-1.344,1.344h-2.016l-5.377,3.361.576-3.361h-2.592a1.344,1.344,0,0,1-1.344-1.344V9.344A1.344,1.344,0,0,1,344.772,8Z" transform="translate(-314.052 -7.328)"/><path class="g" d="M285.925,343.393h2.912l-1.262-3.784a4.033,4.033,0,0,0-3.1-2.692L279.428,336l4.836,2.686a2.688,2.688,0,0,1,1.366,2.053Z" transform="translate(-255.429 -307.772)"/><path class="h" d="M23.26,278.634l-2.41,2.18a1.344,1.344,0,0,1-1.9,0l-4.82-4.82a1.344,1.344,0,0,1,0-1.9l2.18-2.18-4.033-4.033-2.525,2.525a4.033,4.033,0,0,0,0,5.7l9.083,9.083a4.033,4.033,0,0,0,5.7,0l2.756-2.525Z" transform="translate(-7.326 -245.375)"/><path d="M32.793,104.9a4.7,4.7,0,0,0-3.622-3.141l-4.492-.817V100.6a6.764,6.764,0,0,0,2-1.779h1.357A2.019,2.019,0,0,0,30.056,96.8V88.737a8.737,8.737,0,0,0-17.475,0v4.7a2.693,2.693,0,0,0,2.143,2.633,6.734,6.734,0,0,0,3.233,4.523v.348l-4.492.817A4.7,4.7,0,0,0,9.844,104.9l-.269.807-2.289-2.289a.673.673,0,0,1,0-.951l2.655-2.654L4.958,94.834l-3,3a4.7,4.7,0,0,0,0,6.653l9.083,9.083a4.7,4.7,0,0,0,6.632.02l3.274-3-1.021-1.019H34.348Zm-11.474-1.659L19.3,101.229V101.2a6.716,6.716,0,0,0,4.033,0v.032Zm6.721-5.771h-.565a6.676,6.676,0,0,0,.438-1.4,2.663,2.663,0,0,0,.8-.318V96.8A.673.673,0,0,1,28.039,97.475Zm0-5.19a1.333,1.333,0,0,1,0,2.315ZM13.925,93.442a1.34,1.34,0,0,1,.672-1.157V94.6A1.34,1.34,0,0,1,13.925,93.442Zm.672-3.361v.768a2.666,2.666,0,0,0-.672.278v-2.39a7.393,7.393,0,0,1,14.786,0v2.39a2.642,2.642,0,0,0-.672-.278v-.768h-.672a7.4,7.4,0,0,1-5.262-2.18l-.787-.787-.787.787a7.4,7.4,0,0,1-5.262,2.18Zm1.344,4.7V91.4a8.714,8.714,0,0,0,5.377-2.389A8.71,8.71,0,0,0,26.7,91.4v3.386a5.336,5.336,0,0,1-.727,2.688h-4.65v1.344h3.545a5.368,5.368,0,0,1-8.921-4.033Zm-7.9,5.031-.73.73L4.227,97.465l.73-.73Zm6.327,13.788a3.342,3.342,0,0,1-2.377-.985l-9.083-9.083a3.361,3.361,0,0,1,0-4.752l.37-.37L6.359,101.5l-.024.024a2.02,2.02,0,0,0,0,2.852l4.82,4.82a2.006,2.006,0,0,0,1.426.591,1.979,1.979,0,0,0,1.4-.567l.05-.045,3.1,3.1-.386.354A3.344,3.344,0,0,1,14.367,113.605Zm3.754-2.247-3.09-3.09.888-.8L19,110.55Zm.462-3.13-2.618-2.618-2.909,2.631a.686.686,0,0,1-.95,0l-1.468-1.468.481-1.445a3.362,3.362,0,0,1,2.587-2.244l4.7-.854,2.915,2.915,2.914-2.914,4.7.854a3.36,3.36,0,0,1,2.587,2.244l.967,2.9Z" transform="translate(-0.007 -73.279)"/><path d="M346.854,0h-9.409a2.019,2.019,0,0,0-2.016,2.016V7.393a2.019,2.019,0,0,0,2.016,2.016h1.8l-.695,4.053,6.486-4.053h1.823a2.019,2.019,0,0,0,2.016-2.016V2.016A2.019,2.019,0,0,0,346.854,0Zm.672,7.393a.673.673,0,0,1-.672.672h-2.209l-4.269,2.668.458-2.668h-3.389a.673.673,0,0,1-.672-.672V2.016a.673.673,0,0,1,.672-.672h9.409a.673.673,0,0,1,.672.672Z" transform="translate(-306.724)"/><rect width="8.065" height="1.344" transform="translate(31.393 2.688)"/><rect width="5.377" height="1.344" transform="translate(31.393 5.377)"/><rect width="1.344" height="1.344" transform="translate(38.114 5.377)"/><path d="M6.871,38.69l-.692-1.153L4.358,38.63A17.479,17.479,0,0,1,26.489,26.124l.4-1.284A18.82,18.82,0,0,0,3,38.548L1.725,36.424l-1.153.692,2.362,3.937Z" transform="translate(0 -21.984)"/><path d="M409.669,152.953l1.153.692L412,151.684a17.489,17.489,0,0,1-2.962,16.65l1.044.847a18.821,18.821,0,0,0,3.221-17.835l1.975,1.185.692-1.153-3.937-2.362Z" transform="translate(-374.148 -136.497)"/></g></svg>