<svg xmlns="http://www.w3.org/2000/svg" width="41.187" height="41.191" viewBox="0 0 41.187 41.191"><defs><style>.a{fill:#2196f3;}.b{fill:#fafafa;}</style></defs><path class="a" d="M20.618,0A20.2,20.2,0,0,0,.025,19.739a19.363,19.363,0,0,0,6.864,14.69v5.9a.858.858,0,0,0,1.313.728l4.783-2.988a21.248,21.248,0,0,0,7.633,1.4A20.2,20.2,0,0,0,41.212,19.74,20.2,20.2,0,0,0,20.618,0Z" transform="translate(-0.025 0)"/><path class="b" d="M112.658,171.039a.858.858,0,0,0-1.1-.24l-8.924,4.865L97.084,170.9a.858.858,0,0,0-1.165.045l-10.3,10.3A.858.858,0,0,0,86.64,182.6l8.924-4.865,5.557,4.762a.858.858,0,0,0,1.165-.045l10.3-10.3A.858.858,0,0,0,112.658,171.039Z" transform="translate(-78.507 -156.963)"/></svg>