<svg xmlns="http://www.w3.org/2000/svg" width="11.218" height="17.798" viewBox="0 0 11.218 17.798"><defs><style>.a{opacity:0.5;}.b{fill:#578fe1;}</style></defs><g class="a"><path class="b" d="M93.017,7.871,85.569.434a1.435,1.435,0,0,0-2.056,0l-.868.857a1.4,1.4,0,0,0-.423,1.028,1.462,1.462,0,0,0,.423,1.04L88.2,8.9l-5.552,5.552a1.4,1.4,0,0,0-.423,1.028,1.462,1.462,0,0,0,.423,1.039l.868.857a1.462,1.462,0,0,0,2.056,0l7.448-7.437A1.463,1.463,0,0,0,93.44,8.9,1.4,1.4,0,0,0,93.017,7.871Z" transform="translate(-82.222 0)"/></g></svg>