<svg xmlns="http://www.w3.org/2000/svg" width="9.486" height="5.979" viewBox="0 0 9.486 5.979"><defs><style>.a{fill:#585858;}</style></defs><g transform="translate(0 5.979) rotate(-90)"><path class="a" d="M82.447,4.2,86.417.231a.765.765,0,0,1,1.1,0l.463.457a.746.746,0,0,1,.225.548.779.779,0,0,1-.225.554L85.017,4.743,87.976,7.7a.746.746,0,0,1,.225.548.78.78,0,0,1-.225.554l-.463.457a.779.779,0,0,1-1.1,0L82.447,5.3a.78.78,0,0,1-.225-.554A.746.746,0,0,1,82.447,4.2Z" transform="translate(-82.222 0)"/></g></svg>