<svg xmlns="http://www.w3.org/2000/svg" width="11.218" height="17.798" viewBox="0 0 11.218 17.798"><defs><style>.a{opacity:0.5;}.b{fill:#578fe1;}</style></defs><g class="a"><path class="b" d="M82.645,7.871,90.093.434a1.435,1.435,0,0,1,2.056,0l.868.857a1.4,1.4,0,0,1,.423,1.028,1.462,1.462,0,0,1-.423,1.04L87.466,8.9l5.552,5.552a1.4,1.4,0,0,1,.423,1.028,1.462,1.462,0,0,1-.423,1.039l-.868.857a1.462,1.462,0,0,1-2.056,0L82.645,9.938a1.463,1.463,0,0,1-.423-1.04A1.4,1.4,0,0,1,82.645,7.871Z" transform="translate(-82.222 0)"/></g></svg>