<svg xmlns="http://www.w3.org/2000/svg" width="11.73" height="11.16" viewBox="0 0 11.73 11.16"><defs><style>.a{fill:#efa625;}</style></defs><path class="a" d="M7.514,14.094a.344.344,0,0,1-.307-.223l-1.269-3.9c-.04-.123-.1-.123-.145,0l-1.268,3.9a.344.344,0,0,1-.307.223H.112c-.13,0-.15.062-.045.138l3.321,2.412a.344.344,0,0,1,.117.361l-1.268,3.9c-.04.123.012.162.117.085l3.321-2.412a.344.344,0,0,1,.38,0l3.321,2.413c.1.076.158.038.117-.085l-1.268-3.9a.344.344,0,0,1,.117-.361l3.321-2.412c.1-.076.085-.138-.045-.138h-4.1Z" transform="translate(0 -9.874)"/></svg>