<svg xmlns="http://www.w3.org/2000/svg" width="13.22" height="12.577" viewBox="0 0 13.22 12.577"><defs><style>.a{fill:#d1d1d1;}</style></defs><path class="a" d="M8.468,14.63a.388.388,0,0,1-.346-.252l-1.43-4.4c-.045-.139-.118-.139-.164,0L5.1,14.378a.388.388,0,0,1-.346.252H.126c-.146,0-.169.07-.051.156L3.818,17.5a.388.388,0,0,1,.132.407l-1.429,4.4c-.045.139.014.182.132.1L6.4,19.688a.387.387,0,0,1,.428,0l3.743,2.719c.118.086.178.043.132-.1l-1.429-4.4A.388.388,0,0,1,9.4,17.5l3.743-2.719c.118-.086.1-.156-.051-.156H8.468Z" transform="translate(0 -9.874)"/></svg>